<svg xmlns="http://www.w3.org/2000/svg" width="43.715" height="45.449" viewBox="0 0 43.715 45.449">
  <g id="Group_33" data-name="Group 33" transform="translate(-11.176)">
    <path id="Path_21" data-name="Path 21" d="M51.973,3.8H38.213c-.061,0-.12.006-.181.01V0L11.176,3.584V41.773l26.856,3.677V41.526c.06,0,.12.009.181.009h13.76a2.923,2.923,0,0,0,2.919-2.919V6.718A2.922,2.922,0,0,0,51.973,3.8ZM17.661,27.465l-1.642-3.212-.564.768V27.4l-1.438-.045V20.182l1.438-.063v3.218h.029c.145-.283.3-.545.447-.808l1.519-2.5,1.921-.086L17.087,23.2,19.5,27.523Zm9.058.278-.12-3.111c-.036-.976-.072-2.156-.072-3.335H26.49c-.251,1.04-.585,2.2-.893,3.14l-.96,3.111-1.363-.04-.808-3.048c-.244-.913-.5-2.018-.674-3.027h-.022c-.044,1.048-.077,2.244-.131,3.21l-.132,2.937-1.517-.046.458-7.642,2.22-.1.742,2.6c.238.91.478,1.893.651,2.822H24.1c.218-.918.485-1.971.74-2.862l.844-2.691,2.407-.108.46,8.244Zm8.972.276-5.668-.174V19.469l1.995-.089v6.907l3.673.061Zm5.97-11.127c.984.841,1.922,1.736,2.91,2.572,1.427,1.207,2.858,2.411,4.331,3.56a7.076,7.076,0,0,0,2.74,1.314c.2.046.281.131.218.361-.1.351-.142.715-.218,1.072-.057.262-.188.339-.481.282a15.451,15.451,0,0,1-5.286-2.115c-2.049-1.285-4.023-2.689-6.039-4.027A13.768,13.768,0,0,0,38.4,19.1c-.123-.062-.246-.116-.368-.163V15.753A4.851,4.851,0,0,1,41.661,16.893Zm-1.855-2.881c.461-.1.918-.241,1.385-.3a9.417,9.417,0,0,1,7.21,1.965,8.992,8.992,0,0,1,3.1,4.344c.169.5.115.754-.214,1.022a.819.819,0,0,1-1.086-.015,10.838,10.838,0,0,1-1.31-1.342c-.9-1.087-1.7-2.26-2.655-3.294A6.627,6.627,0,0,0,41.6,14.3c-.495-.029-.991-.047-1.486-.075a2.55,2.55,0,0,1-.285-.047C39.82,14.12,39.813,14.066,39.807,14.012ZM38.521,31.233c.03.121.05.247.1.471a4.444,4.444,0,0,1-.517-.185c-.023-.012-.044-.026-.068-.039V27.1A23.038,23.038,0,0,0,42.5,28.572,25.2,25.2,0,0,0,45.946,29a12.564,12.564,0,0,0,3.931-.595c.121-.033.242-.061.363-.091l.114.121c-.186.256-.378.507-.556.768a4.112,4.112,0,0,1-3.13,1.522,16.644,16.644,0,0,1-6.707-.492c-.126-.033-.254-.059-.383-.085C38.661,29.963,38.3,30.337,38.521,31.233Zm14.7,7.383a1.252,1.252,0,0,1-1.251,1.251H38.213a1.16,1.16,0,0,1-.181-.018V32.268a9.989,9.989,0,0,0,4.4,1.06,10.247,10.247,0,1,0,.085-20.493,10.025,10.025,0,0,0-4.484,1.046V5.486a1.23,1.23,0,0,1,.181-.019h13.76a1.252,1.252,0,0,1,1.251,1.251Z" fill="#6e6e6e"/>
  </g>
</svg>
