<svg xmlns="http://www.w3.org/2000/svg" width="37.028" height="44.913" viewBox="0 0 37.028 44.913">
  <g id="Group_478" data-name="Group 478" transform="translate(-44.944)">
    <g id="Group_479" data-name="Group 479" transform="translate(44.944)">
      <g id="Group_478-2" data-name="Group 478">
        <path id="Path_70" data-name="Path 70" d="M81.7,11.129,70.843.269A.917.917,0,0,0,70.2,0H49.4a4.46,4.46,0,0,0-4.455,4.455v36A4.46,4.46,0,0,0,49.4,44.913H77.517a4.46,4.46,0,0,0,4.455-4.455V11.777A.917.917,0,0,0,81.7,11.129Zm-10.591-8,7.731,7.73H73.733a2.621,2.621,0,0,1-2.622-2.621Zm9.027,37.328a2.624,2.624,0,0,1-2.621,2.622H49.4a2.624,2.624,0,0,1-2.622-2.622v-36A2.625,2.625,0,0,1,49.4,1.833h19.88V8.239a4.454,4.454,0,0,0,4.455,4.455h6.405V40.458Z" transform="translate(-44.944 0)" fill="#458072"/>
      </g>
    </g>
    <g id="Group_481" data-name="Group 481" transform="translate(52.639 26.645)">
      <g id="Group_480" data-name="Group 480" transform="translate(0)">
        <path id="Path_71" data-name="Path 71" d="M133.989,303.745h-.41a.917.917,0,1,0,0,1.833h.41a.917.917,0,1,0,0-1.833Z" transform="translate(-132.662 -303.745)" fill="#458072"/>
      </g>
    </g>
    <g id="Group_483" data-name="Group 483" transform="translate(56.014 26.645)">
      <g id="Group_482" data-name="Group 482">
        <path id="Path_72" data-name="Path 72" d="M188.49,303.745h-16.43a.917.917,0,1,0,0,1.833h16.43a.917.917,0,1,0,0-1.833Z" transform="translate(-171.144 -303.745)" fill="#458072"/>
      </g>
    </g>
    <g id="Group_485" data-name="Group 485" transform="translate(52.639 22.456)">
      <g id="Group_484" data-name="Group 484" transform="translate(0)">
        <path id="Path_73" data-name="Path 73" d="M133.989,256h-.41a.917.917,0,0,0,0,1.833h.41a.917.917,0,0,0,0-1.833Z" transform="translate(-132.662 -256)" fill="#458072"/>
      </g>
    </g>
    <g id="Group_487" data-name="Group 487" transform="translate(56.014 22.456)">
      <g id="Group_486" data-name="Group 486">
        <path id="Path_74" data-name="Path 74" d="M188.49,256h-16.43a.917.917,0,0,0,0,1.833h16.43a.917.917,0,0,0,0-1.833Z" transform="translate(-171.144 -256)" fill="#458072"/>
      </g>
    </g>
    <g id="Group_489" data-name="Group 489" transform="translate(52.639 18.268)">
      <g id="Group_488" data-name="Group 488" transform="translate(0)">
        <path id="Path_75" data-name="Path 75" d="M133.989,208.255h-.41a.917.917,0,0,0,0,1.833h.41a.917.917,0,0,0,0-1.833Z" transform="translate(-132.662 -208.255)" fill="#458072"/>
      </g>
    </g>
    <g id="Group_491" data-name="Group 491" transform="translate(56.014 18.268)">
      <g id="Group_490" data-name="Group 490">
        <path id="Path_76" data-name="Path 76" d="M188.49,208.255h-16.43a.917.917,0,0,0,0,1.833h16.43a.917.917,0,0,0,0-1.833Z" transform="translate(-171.144 -208.255)" fill="#458072"/>
      </g>
    </g>
  </g>
</svg>
