<svg xmlns="http://www.w3.org/2000/svg" width="55.004" height="57.186" viewBox="0 0 55.004 57.186">
  <g id="Group_503" data-name="Group 503" transform="translate(-11.176)">
    <path id="Path_21" data-name="Path 21" d="M62.508,4.78H45.194c-.077,0-.152.008-.227.012V0L11.176,4.51v48.05l33.791,4.626V52.249c.076.005.151.011.227.011H62.508a3.677,3.677,0,0,0,3.672-3.672V8.452A3.677,3.677,0,0,0,62.508,4.78ZM19.335,34.557l-2.066-4.041-.71.966v2.99l-1.81-.056V25.393l1.81-.08v4.049H16.6c.183-.356.378-.686.562-1.017L19.069,25.2l2.416-.108-2.872,4.095,3.03,5.441Zm11.4.35-.151-3.914c-.045-1.228-.091-2.712-.091-4.2h-.046c-.316,1.309-.736,2.763-1.124,3.951l-1.208,3.914L26.4,34.613l-1.016-3.835c-.307-1.148-.627-2.539-.848-3.808h-.028c-.055,1.318-.1,2.824-.165,4.039l-.166,3.7-1.909-.058.576-9.615,2.793-.124.934,3.268c.3,1.145.6,2.382.819,3.551h.043c.275-1.155.61-2.48.931-3.6l1.062-3.386,3.028-.135.578,10.373Zm11.289.347-7.132-.219V24.5l2.51-.111v8.691l4.622.076Zm7.512-14c1.238,1.058,2.418,2.184,3.661,3.236,1.8,1.519,3.6,3.034,5.449,4.479a8.9,8.9,0,0,0,3.448,1.653c.247.057.354.165.274.455-.122.442-.178.9-.274,1.348-.071.329-.236.426-.605.355a19.441,19.441,0,0,1-6.651-2.661c-2.578-1.617-5.061-3.384-7.6-5.067a17.322,17.322,0,0,0-1.807-1.014c-.155-.078-.31-.146-.463-.206V19.821A6.1,6.1,0,0,1,49.533,21.255ZM47.2,17.63c.58-.129,1.155-.3,1.742-.381a11.849,11.849,0,0,1,9.072,2.472,11.314,11.314,0,0,1,3.9,5.465c.212.627.145.949-.269,1.286a1.031,1.031,0,0,1-1.367-.019,13.637,13.637,0,0,1-1.648-1.688c-1.13-1.367-2.141-2.844-3.34-4.144a8.338,8.338,0,0,0-5.835-2.634c-.622-.037-1.246-.059-1.869-.094a3.209,3.209,0,0,1-.359-.059C47.216,17.766,47.208,17.7,47.2,17.63ZM45.583,39.3c.038.152.063.31.12.592a5.592,5.592,0,0,1-.651-.233c-.029-.015-.056-.033-.085-.049V34.1a28.987,28.987,0,0,0,5.622,1.848,31.7,31.7,0,0,0,4.335.542,15.809,15.809,0,0,0,4.946-.748c.152-.041.3-.077.457-.115l.143.152c-.233.322-.476.638-.7.967-.947,1.394-2.425,1.688-3.938,1.916a20.942,20.942,0,0,1-8.439-.62c-.159-.042-.32-.074-.482-.107C45.759,37.7,45.3,38.171,45.583,39.3Zm18.5,9.29a1.575,1.575,0,0,1-1.574,1.574H45.194a1.459,1.459,0,0,1-.227-.022V40.6A12.568,12.568,0,0,0,50.5,41.934a12.893,12.893,0,1,0,.107-25.785,12.613,12.613,0,0,0-5.642,1.316V6.9a1.548,1.548,0,0,1,.227-.024H62.508a1.576,1.576,0,0,1,1.574,1.574Z" fill="#aeb7b5"/>
  </g>
</svg>
